<?xml version="1.0" encoding="utf-8"?>
<!-- Generator: Adobe Illustrator 25.0.0, SVG Export Plug-In . SVG Version: 6.00 Build 0)  -->
<svg version="1.1" xmlns="http://www.w3.org/2000/svg" xmlns:xlink="http://www.w3.org/1999/xlink" x="0px" y="0px"
	 viewBox="0 0 153 50" style="enable-background:new 0 0 153 50;" xml:space="preserve">
<style type="text/css">
	.st0{fill:#242424;stroke:#FFFFFF;stroke-miterlimit:10;}
	.st1{fill:#FCCF00;}
	.st2{fill:#231F20;stroke:#FFFFFF;stroke-miterlimit:10;}
	.st3{fill:none;stroke:#000000;stroke-width:1.5;stroke-miterlimit:10;}
	.st4{fill:#FFFFFF;}
	.st5{fill:#242424;}
	.st6{fill:none;stroke:#FCCF00;stroke-width:1.5;stroke-miterlimit:10;}
	.st7{fill:#FFFFFF;stroke:#242424;stroke-miterlimit:10;}
	.st8{fill:none;stroke:#242424;stroke-miterlimit:10;}
	.st9{display:none;fill:#242424;}
</style>
<g id="Layer_1">
</g>
<g id="Layer_2">
	<rect class="st9" width="153" height="50"/>
	<circle class="st1" cx="20.11" cy="25.97" r="19"/>
	<g>
		<g>
			<path class="st4" d="M43.52,21.09l6.11,0.02c0.99,0,1.92,0.19,2.79,0.56s1.63,0.89,2.28,1.54c0.64,0.65,1.15,1.41,1.53,2.29
				c0.38,0.88,0.56,1.81,0.56,2.81c0,0.98-0.19,1.91-0.56,2.78c-0.38,0.87-0.89,1.63-1.53,2.28c-0.64,0.65-1.4,1.16-2.28,1.53
				c-0.88,0.37-1.8,0.55-2.79,0.55h-6.11V21.09z M47.66,25.22v6.17h1.76c0.42,0,0.82-0.08,1.2-0.25s0.7-0.38,0.97-0.66
				c0.27-0.27,0.49-0.6,0.66-0.97c0.16-0.38,0.25-0.78,0.25-1.2s-0.08-0.82-0.25-1.2c-0.16-0.38-0.38-0.7-0.66-0.98
				c-0.27-0.28-0.6-0.5-0.97-0.67s-0.78-0.25-1.2-0.25H47.66z"/>
			<path class="st4" d="M61.8,25.22v1h5.17v4.1H61.8v1.07h5.21v4.06l-9.33-0.02V21.09l9.29,0.02v4.1H61.8z"/>
			<path class="st4" d="M72.13,21.07v10.32h5.21v4.06l-9.33-0.02V21.09L72.13,21.07z"/>
			<path class="st4" d="M78.12,21.09h4.66v14.36h-4.66V21.09z"/>
			<path class="st4" d="M82.92,21.09h4.84l2.71,5.07l2.71-5.07h4.84l-7.51,14.36L82.92,21.09z"/>
			<path class="st4" d="M102.66,25.22v1h5.17v4.1h-5.17v1.07h5.21v4.06l-9.33-0.02V21.09l9.29,0.02v4.1H102.66z"/>
			<path class="st4" d="M113.28,28.95v6.44h-4.27V21.17h5.19c0.68,0,1.35,0.06,1.99,0.18c0.64,0.12,1.21,0.34,1.69,0.66
				c0.48,0.31,0.88,0.74,1.17,1.26s0.43,1.19,0.42,1.98c0,0.36-0.08,0.72-0.25,1.1c-0.16,0.38-0.38,0.73-0.64,1.06
				s-0.55,0.61-0.86,0.85s-0.62,0.41-0.92,0.5l3.3,6.65h-3.63L113.28,28.95z M113.28,24.62v1.58h0.29c0.1,0,0.19,0,0.29,0.01
				c0.1,0.01,0.19,0.01,0.29,0.01c0.12,0,0.26-0.01,0.42-0.04c0.16-0.03,0.31-0.07,0.46-0.14c0.15-0.07,0.28-0.16,0.38-0.27
				c0.1-0.11,0.15-0.26,0.15-0.45c0-0.18-0.05-0.31-0.16-0.41s-0.24-0.16-0.39-0.21s-0.3-0.06-0.45-0.07
				c-0.15-0.01-0.27-0.01-0.35-0.01H113.28z"/>
		</g>
	</g>
	<path class="st5" d="M22.07,16.42h3.63c0.12,0,0.21,0.11,0.18,0.23l-4.75,18.9c-0.02,0.08-0.09,0.14-0.18,0.14h-4.38
		c-0.09,0-0.16-0.06-0.18-0.14l-1.82-8.41c0,0-0.32-0.55-0.85-0.58c-0.24-0.02-0.52,0.07-0.84,0.36l-1.93,8.63
		c-0.02,0.08-0.09,0.14-0.18,0.14h-4.2c-0.08,0-0.15-0.06-0.18-0.14l-5.05-18.9c-0.03-0.12,0.06-0.23,0.18-0.23h4.1
		c0.09,0,0.16,0.06,0.18,0.15l1.83,9.78c0,0,0.12,0.96,0.9,0.96s0.96-1.26,0.96-1.26l2-9.49c0.02-0.08,0.09-0.14,0.18-0.14h3.83
		c0.09,0,0.16,0.06,0.18,0.14l2.3,10.31c0,0,0.06,0.57,1.02,0.55c0.68-0.01,0.66-0.55,0.66-0.55l2.24-10.31
		C21.91,16.48,21.98,16.42,22.07,16.42z"/>
	<path class="st5" d="M32.45,21.26c-7.06,0.24-7.18,7.36-7.18,7.36c0.12,3.95,2.93,7.72,7.24,7.78c3.19,0.04,4.94-1.68,5.63-2.58
		c0.21-0.28,0.16-0.67-0.13-0.87l-2.09-1.49c-0.16-0.12-0.39-0.06-0.48,0.12c-0.24,0.5-0.93,1.32-2.93,1.24
		c-2.87-0.12-2.57-2.75-2.57-2.75l9.5-0.35c0.17-0.01,0.31-0.15,0.29-0.33C39.61,27.82,38.7,21.05,32.45,21.26z M34.65,27.33h-4.31
		c-0.5-0.62-0.16-1.44-0.16-1.44c2.1-2.33,4.19-0.85,4.81,0C35.62,26.75,34.65,27.33,34.65,27.33z"/>
	<path class="st1" d="M133.11,26.24c0-3-2.44-5.45-5.45-5.45s-5.45,2.44-5.45,5.45s2.44,5.45,5.45,5.45c0.71,0,1.39-0.14,2.01-0.39
		l-3.36,4.85l0.75,0.52l5.09-7.33l0,0C132.75,28.46,133.11,27.39,133.11,26.24z M123.12,26.24c0-2.5,2.03-4.54,4.54-4.54
		c2.5,0,4.54,2.03,4.54,4.54s-2.03,4.54-4.54,4.54C125.16,30.78,123.12,28.74,123.12,26.24z"/>
	<path class="st1" d="M151.69,26.24c0-3-2.44-5.45-5.45-5.45c-3,0-5.45,2.44-5.45,5.45s2.44,5.45,5.45,5.45
		c0.71,0,1.39-0.14,2.01-0.39l-3.36,4.85l0.75,0.52l5.09-7.33l0,0C151.33,28.46,151.69,27.39,151.69,26.24z M141.71,26.24
		c0-2.5,2.03-4.54,4.54-4.54s4.54,2.03,4.54,4.54s-2.03,4.54-4.54,4.54S141.71,28.74,141.71,26.24z"/>
	<g>
		
			<rect x="128.74" y="28.37" transform="matrix(0.3868 -0.9221 0.9221 0.3868 57.395 143.9755)" class="st1" width="16.44" height="0.91"/>
	</g>
	<g>
		<g>
			<circle class="st4" cx="49.69" cy="28.29" r="4.45"/>
			<path class="st5" d="M49.68,33.05c-2.62,0-4.76-2.13-4.76-4.76s2.13-4.76,4.76-4.76c2.62,0,4.76,2.13,4.76,4.76
				S52.31,33.05,49.68,33.05z M49.68,24.14c-2.29,0-4.15,1.86-4.15,4.15s1.86,4.15,4.15,4.15c2.29,0,4.15-1.86,4.15-4.15
				S51.97,24.14,49.68,24.14z"/>
		</g>
		<path class="st5" d="M52.83,27.12c-0.09-0.11-0.22-0.17-0.36-0.17h-1.45c-0.02-0.72-0.61-1.31-1.33-1.31s-1.32,0.58-1.33,1.31
			H46.9c-0.14,0-0.27,0.06-0.36,0.17c-0.09,0.11-0.12,0.25-0.09,0.39l0.53,2.46c0.04,0.21,0.24,0.37,0.45,0.37h4.56
			c0.22,0,0.41-0.16,0.45-0.37l0.49-2.46C52.96,27.37,52.92,27.23,52.83,27.12z M50.41,27.99v1.74h-1.46v-1.74H50.41z M49.68,26.26
			c0.39,0,0.71,0.31,0.72,0.7h-1.45C48.98,26.57,49.29,26.26,49.68,26.26z M47.17,27.99h1.18v1.74h-0.8L47.17,27.99z M51.87,29.73
			h-0.85v-1.74h1.19L51.87,29.73z"/>
	</g>
</g>
</svg>
